<svg width="88" height="30" viewBox="0 0 88 30" fill="none" xmlns="http://www.w3.org/2000/svg">
<g clip-path="url(#clip0_0_55)">
<path d="M9.76351 13.6804L6.44196 12.7247C5.29706 12.3907 4.73584 12.0789 4.73584 11.255C4.73584 10.3643 5.4991 9.78534 7.31657 9.78534C9.28565 9.84313 11.2143 10.3539 12.9504 11.2773L14.23 7.33677C12.126 6.37211 9.83648 5.87045 7.51861 5.86621C2.49004 5.86621 0.065551 8.38158 0.065551 11.5436C0.065551 14.148 1.59208 15.8404 4.80139 16.6866L7.85445 17.5105C9.35853 17.889 9.96465 18.3789 9.96465 19.2028C9.96465 20.383 8.81975 20.962 6.97984 20.962C4.87716 20.903 2.8329 20.2626 1.07755 19.1129L0 23.2983C2.14584 24.3186 4.48911 24.8656 6.86849 24.9016C11.5379 24.9016 14.6807 22.453 14.6807 18.8902C14.6789 16.3303 13.2 14.6602 9.76351 13.6804Z" fill="#00B140"/>
<path d="M23.8588 21.3841C21.7486 21.3841 20.5597 20.3153 20.2903 18.6684H29.4926C29.6883 17.7762 29.7861 16.8656 29.7844 15.9526C29.7844 12.6783 27.6967 10.0294 23.3443 10.0294C22.3324 9.98634 21.3226 10.1519 20.3785 10.5156C19.4345 10.8794 18.5767 11.4333 17.8594 12.1426C17.1422 12.8518 16.5809 13.7008 16.2113 14.6361C15.8416 15.5714 15.6714 16.5726 15.7116 17.5764C15.7116 21.7841 18.1801 25.0343 23.5894 25.0343C25.7802 25.0945 27.9262 24.411 29.6722 23.097L27.9661 20.0472C26.7474 20.8598 25.3259 21.3225 23.8588 21.3841ZM23.32 13.4809C25.0261 13.4809 25.811 14.3048 25.811 15.4404C25.8147 15.5522 25.8071 15.6641 25.7885 15.7745H20.381C20.4962 15.0983 20.8609 14.4888 21.4041 14.0647C21.9474 13.6406 22.6304 13.433 23.32 13.4809Z" fill="#00B140"/>
<path d="M38.1785 20.6716C37.7343 20.903 37.2433 21.0324 36.7418 21.0501C36.0234 21.0501 35.754 20.5157 35.754 19.6695V5.30951H31.1529V20.8275C31.1529 23.8327 32.6121 24.9016 34.8785 24.9016C36.0635 24.8917 37.2388 24.6886 38.3572 24.3003L38.1785 20.6716Z" fill="#00B140"/>
<path d="M46.7082 20.6716C46.264 20.903 45.773 21.0324 45.2715 21.0501C44.5531 21.0501 44.2838 20.5157 44.2838 19.6695V5.30951H39.6826V20.8275C39.6826 23.8327 41.1418 24.9016 43.4083 24.9016C44.5932 24.8917 45.7685 24.6886 46.8869 24.3003L46.7082 20.6716Z" fill="#00B140"/>
<path d="M69.96 10.9869L64.4825 24.4366C62.9784 28.288 61.4294 30.0027 58.0405 30.0027C56.8732 29.9891 55.732 29.6579 54.7414 29.0451L55.3924 25.5714C56.1747 26.0132 57.0514 26.2651 57.9507 26.3062C59.0956 26.3062 59.5895 25.7273 60.0385 24.7252L60.2854 24.1462L55.8414 14.5266H53.3505V24.6121H48.7493V14.5266H46.2808V10.9869H48.7493V10.2084C48.7493 7.42584 50.3207 5.0423 53.8892 5.0423C55.1618 5.05937 56.4219 5.29286 57.6149 5.7326L56.7843 9.36135C56.1262 9.00879 55.3982 8.80357 54.6516 8.76012C53.7087 8.76012 53.3271 9.33908 53.3271 10.2298V10.9869H59.2114L62.2861 19.6268L65.3607 10.9869H69.96Z" fill="#00B140"/>
<path d="M87.5124 0.500614C82.981 -0.167278 78.375 -0.167278 73.8437 0.500614C73.1928 4.99702 73.1928 9.5626 73.8437 14.059C76.1084 14.4232 78.3959 14.6315 80.6897 14.6825C82.9763 14.6305 85.2565 14.4222 87.5142 14.059C88.1645 9.56251 88.1639 4.99693 87.5124 0.500614ZM80.4419 11.7236C79.3461 11.7073 78.2667 11.4567 77.2775 10.9887L77.7714 9.0737C78.5778 9.60434 79.5192 9.89771 80.4868 9.91987C81.3398 9.91987 81.8562 9.65266 81.8562 9.11823C81.8562 8.73968 81.5868 8.517 80.8909 8.33886L79.499 7.96031C78.0174 7.55949 77.3215 6.80239 77.3215 5.60082C77.3215 4.15341 78.4439 2.99638 80.7553 2.99638C81.8236 2.99919 82.8793 3.22689 83.8523 3.66442L83.2686 5.49037C82.4752 5.0618 81.591 4.82528 80.6879 4.80007C79.8573 4.80007 79.4981 5.06728 79.4981 5.4681C79.4981 5.84665 79.745 6.00253 80.2838 6.13614L81.8104 6.58149C83.3818 7.02685 84.0777 7.78395 84.0777 8.96325C84.0328 10.6084 82.597 11.7218 80.4419 11.7218V11.7236Z" fill="#00B140"/>
</g>
<defs>
<clipPath id="clip0_0_55">
<rect width="88" height="30" fill="white"/>
</clipPath>
</defs>
</svg>
