<svg width="152" height="52" viewBox="0 0 152 52" fill="none" xmlns="http://www.w3.org/2000/svg">
<g clip-path="url(#clip0_0_88)">
<path d="M16.8642 23.7127L11.127 22.0561C9.14947 21.4771 8.18008 20.9368 8.18008 19.5087C8.18008 17.9648 9.49845 16.9612 12.6377 16.9612C16.0388 17.0614 19.3701 17.9467 22.3688 19.5473L24.579 12.7171C20.9449 11.045 16.9903 10.1754 12.9867 10.1681C4.30098 10.1681 0.113224 14.5281 0.113224 20.0089C0.113224 24.5232 2.74996 27.4567 8.29331 28.9234L13.5668 30.3515C16.1647 31.0076 17.2117 31.8568 17.2117 33.2849C17.2117 35.3305 15.2341 36.3341 12.0561 36.3341C8.42419 36.2319 4.89319 35.1218 1.86122 33.1289L0 40.3837C3.70645 42.1523 7.75392 43.1004 11.8638 43.1627C19.9291 43.1627 25.3576 38.9185 25.3576 32.743C25.3545 28.3058 22.8 25.411 16.8642 23.7127Z" fill="white"/>
<path d="M41.2106 37.0658C37.5657 37.0658 35.5122 35.2132 35.0469 32.3585H50.9417C51.2797 30.8121 51.4488 29.2338 51.4458 27.6512C51.4458 21.9758 47.8397 17.3842 40.3219 17.3842C38.5742 17.3097 36.8299 17.5966 35.1992 18.2271C33.5686 18.8576 32.087 19.8178 30.8481 21.0471C29.6092 22.2764 28.6398 23.7481 28.0012 25.3693C27.3627 26.9904 27.0688 28.7258 27.1382 30.4657C27.1382 37.7591 31.402 43.3927 40.7453 43.3927C44.5295 43.4971 48.2361 42.3125 51.2519 40.0348L48.305 34.7485C46.2 36.1571 43.7448 36.9591 41.2106 37.0658ZM40.28 23.3668C43.2269 23.3668 44.5825 24.7949 44.5825 26.7634C44.5889 26.9572 44.576 27.1512 44.5438 27.3424H35.2035C35.4024 26.1703 36.0324 25.1139 36.9708 24.3788C37.9091 23.6436 39.0888 23.2839 40.28 23.3668Z" fill="white"/>
<path d="M65.9447 35.8308C65.1774 36.2319 64.3293 36.4561 63.4631 36.4869C62.2223 36.4869 61.757 35.5606 61.757 34.0939V9.20319H53.8096V36.101C53.8096 41.3101 56.33 43.1628 60.2447 43.1628C62.2915 43.1457 64.3215 42.7936 66.2534 42.1206L65.9447 35.8308Z" fill="white"/>
<path d="M80.6779 35.8308C79.9105 36.2319 79.0624 36.4561 78.1962 36.4869C76.9554 36.4869 76.4901 35.5606 76.4901 34.0939V9.20319H68.5427V36.101C68.5427 41.3101 71.0631 43.1628 74.9779 43.1628C77.0246 43.1457 79.0546 42.7936 80.9865 42.1206L80.6779 35.8308Z" fill="white"/>
<path d="M120.84 19.044L111.379 42.3568C108.781 49.0326 106.105 52.0046 100.252 52.0046C98.2355 51.9812 96.2643 51.4071 94.5533 50.3449L95.6778 44.3237C97.0291 45.0896 98.5433 45.5261 100.097 45.5975C102.074 45.5975 102.927 44.5939 103.703 42.857L104.129 41.8535L96.4533 25.1794H92.1508V42.661H84.2034V25.1794H79.9396V19.044H84.2034V17.6946C84.2034 12.8715 86.9176 8.73999 93.0814 8.73999C95.2794 8.76959 97.456 9.1743 99.5166 9.93651L98.0819 16.2263C96.9452 15.6152 95.6878 15.2595 94.3982 15.1842C92.7696 15.1842 92.1104 16.1877 92.1104 17.7316V19.044H102.274L107.585 34.0198L112.896 19.044H120.84Z" fill="white"/>
<path d="M151.158 0.86771C143.331 -0.289969 135.375 -0.289969 127.548 0.86771C126.424 8.66148 126.424 16.5751 127.548 24.3689C131.46 25.0002 135.411 25.3613 139.373 25.4496C143.323 25.3596 147.261 24.9985 151.161 24.3689C152.284 16.575 152.283 8.66133 151.158 0.86771ZM138.945 20.3208C137.052 20.2927 135.188 19.8583 133.479 19.0471L134.332 15.7277C135.725 16.6475 137.351 17.156 139.023 17.1944C140.496 17.1944 141.388 16.7313 141.388 15.8049C141.388 15.1488 140.923 14.7628 139.721 14.454L137.316 13.7978C134.757 13.1031 133.555 11.7908 133.555 9.70807C133.555 7.19923 135.494 5.19371 139.486 5.19371C141.332 5.19858 143.155 5.59325 144.836 6.35163L143.828 9.51662C142.457 8.77377 140.93 8.36379 139.37 8.3201C137.935 8.3201 137.315 8.78327 137.315 9.47802C137.315 10.1342 137.741 10.4044 138.672 10.6359L141.309 11.4079C144.023 12.1798 145.225 13.4922 145.225 15.5363C145.148 18.3879 142.668 20.3177 138.945 20.3177V20.3208Z" fill="white"/>
</g>
<defs>
<clipPath id="clip0_0_88">
<rect width="152" height="52" fill="white"/>
</clipPath>
</defs>
</svg>
