<svg width="21" height="18" viewBox="0 0 21 18" fill="none" xmlns="http://www.w3.org/2000/svg">
<mask id="mask0_0_65" style="mask-type:luminance" maskUnits="userSpaceOnUse" x="0" y="0" width="21" height="18">
<path d="M21 0.580627H0V17.4193H21V0.580627Z" fill="white"/>
</mask>
<g mask="url(#mask0_0_65)">
<path d="M20.9978 2.57392C20.2115 2.9176 19.3774 3.1432 18.5235 3.2432C19.4232 2.71236 20.0964 1.87676 20.4177 0.892249C19.5719 1.38646 18.6467 1.73432 17.6821 1.92079C17.0323 1.23965 16.1732 0.788724 15.2376 0.63776C14.302 0.486797 13.3421 0.644207 12.5063 1.08565C11.6704 1.52709 11.0053 2.22796 10.6138 3.07985C10.2223 3.93175 10.1261 4.88719 10.3403 5.7984C8.62718 5.71373 6.95133 5.27452 5.42146 4.50928C3.89159 3.74404 2.54195 2.66989 1.46016 1.35656C0.909241 2.29249 0.740486 3.40036 0.988235 4.45472C1.23599 5.50908 1.88162 6.43067 2.79375 7.03191C2.10952 7.01075 1.44036 6.82836 0.842144 6.50001C0.842144 6.51764 0.842144 6.53527 0.842144 6.55364C0.842323 7.53527 1.18659 8.48664 1.81657 9.24637C2.44654 10.0062 3.32344 10.5276 4.29859 10.7222C3.66416 10.8925 2.9987 10.9176 2.35294 10.7956C2.62818 11.6402 3.16408 12.3788 3.88569 12.908C4.60729 13.4374 5.47852 13.7309 6.37751 13.7476C4.85144 14.9294 2.96681 15.5704 1.02681 15.5673C0.683681 15.5679 0.340817 15.5485 0 15.5093C1.96999 16.7585 4.26286 17.4217 6.60462 17.4195C14.5294 17.4195 18.863 10.9418 18.863 5.32453C18.863 5.14038 18.8587 4.95695 18.8503 4.77426C19.6929 4.17251 20.4201 3.42742 20.9978 2.57392Z" fill="#7A7A7A"/>
</g>
</svg>
