<svg width="233" height="120" viewBox="0 0 233 120" fill="none" xmlns="http://www.w3.org/2000/svg">
<path d="M207.307 9.57083H10.744C5.36256 9.57083 1 13.8599 1 19.1508V85.6941C1 90.985 5.36256 95.2741 10.744 95.2741H207.307C212.689 95.2741 217.051 90.985 217.051 85.6941V19.1508C217.051 13.8599 212.689 9.57083 207.307 9.57083Z" stroke="#3C97EF" stroke-miterlimit="10"/>
<path d="M221.596 24.4463H26.3649C20.6156 24.4463 15.9549 29.0285 15.9549 34.6811V99.9148C15.9549 105.567 20.6156 110.15 26.3649 110.15H221.596C227.346 110.15 232.006 105.567 232.006 99.9148V34.6811C232.006 29.0285 227.346 24.4463 221.596 24.4463Z" stroke="url(#paint0_linear_28_19)" stroke-linecap="round" stroke-linejoin="round"/>
<path d="M216.92 18.186H14.1173C10.4587 18.186 7.49278 21.1019 7.49278 24.699V97.3762C7.49278 100.973 10.4587 103.889 14.1173 103.889H216.92C220.578 103.889 223.544 100.973 223.544 97.3762V24.699C223.544 21.1019 220.578 18.186 216.92 18.186Z" fill="#3C97EF"/>
<path d="M109.719 30.7573L108.874 35.6244C108.85 35.7672 108.838 35.9021 108.838 36.029C108.838 36.3464 108.921 36.5923 109.088 36.7668C109.262 36.9414 109.528 37.0286 109.885 37.0286C110.314 37.0286 110.659 36.9057 110.92 36.6597C111.182 36.4138 111.353 36.0687 111.432 35.6244L112.289 30.7573H114.621L113.765 35.6244C113.63 36.4178 113.356 37.0842 112.943 37.6236C112.531 38.1631 112.027 38.5677 111.432 38.8374C110.837 39.0992 110.187 39.2301 109.481 39.2301C108.568 39.2301 107.834 38.9921 107.279 38.5161C106.732 38.0401 106.458 37.3579 106.458 36.4693C106.458 36.1837 106.486 35.9021 106.541 35.6244L107.398 30.7573H109.719ZM117.334 39.2301C116.778 39.2301 116.282 39.1468 115.846 38.9802C115.41 38.8136 115.069 38.5796 114.823 38.2781C114.577 37.9687 114.454 37.6157 114.454 37.219C114.454 37.1476 114.462 37.0405 114.478 36.8977H116.727C116.719 37.1199 116.786 37.2904 116.929 37.4094C117.072 37.5284 117.27 37.5879 117.524 37.5879C117.722 37.5879 117.885 37.5483 118.012 37.4689C118.147 37.3896 118.214 37.2865 118.214 37.1595C118.214 37.0088 118.131 36.8938 117.964 36.8144C117.798 36.7272 117.52 36.6201 117.131 36.4931C116.679 36.3503 116.306 36.2115 116.013 36.0766C115.719 35.9418 115.461 35.7434 115.239 35.4816C115.025 35.2198 114.918 34.8827 114.918 34.4701C114.918 34.0735 115.033 33.7165 115.263 33.3991C115.501 33.0818 115.834 32.8359 116.263 32.6613C116.691 32.4789 117.187 32.3876 117.75 32.3876C118.353 32.3876 118.873 32.4908 119.309 32.697C119.753 32.8954 120.082 33.173 120.297 33.53C120.519 33.887 120.618 34.2837 120.594 34.72H118.5C118.508 34.5058 118.444 34.3392 118.309 34.2202C118.174 34.0933 117.98 34.0298 117.726 34.0298C117.544 34.0298 117.393 34.0695 117.274 34.1488C117.155 34.2282 117.096 34.3313 117.096 34.4582C117.096 34.609 117.179 34.728 117.345 34.8152C117.52 34.9025 117.81 35.0136 118.214 35.1484C118.658 35.2912 119.027 35.434 119.321 35.5768C119.622 35.7117 119.88 35.9061 120.094 36.1599C120.309 36.4059 120.416 36.7232 120.416 37.1119C120.416 37.7704 120.13 38.29 119.559 38.6708C118.988 39.0437 118.246 39.2301 117.334 39.2301ZM125.394 32.3876C126.267 32.3876 126.957 32.6217 127.465 33.0897C127.98 33.5578 128.238 34.1964 128.238 35.0056C128.238 35.2754 128.218 35.5134 128.179 35.7196C128.131 35.9735 128.083 36.156 128.036 36.267H123.621C123.613 36.3146 123.609 36.386 123.609 36.4812C123.609 36.7827 123.68 37.0048 123.823 37.1476C123.974 37.2904 124.172 37.3618 124.418 37.3618C124.807 37.3618 125.116 37.1873 125.346 36.8382H127.822C127.639 37.2984 127.366 37.7109 127.001 38.0758C126.644 38.4328 126.219 38.7145 125.727 38.9207C125.243 39.127 124.728 39.2301 124.18 39.2301C123.308 39.2301 122.613 38.9921 122.098 38.5161C121.582 38.0401 121.324 37.3856 121.324 36.5526C121.324 36.3146 121.348 36.0647 121.396 35.8029C121.523 35.1048 121.773 34.5019 122.145 33.9941C122.526 33.4785 122.994 33.0818 123.55 32.8041C124.113 32.5265 124.728 32.3876 125.394 32.3876ZM125.882 35.2198C125.898 35.1088 125.906 35.0374 125.906 35.0056C125.906 34.7518 125.826 34.5614 125.668 34.4344C125.509 34.2996 125.303 34.2321 125.049 34.2321C124.755 34.2321 124.502 34.3154 124.287 34.482C124.073 34.6486 123.915 34.8946 123.811 35.2198H125.882Z" fill="white"/>
<path d="M151.659 94.3936H68.6241C65.8474 94.3936 63.1834 93.3139 61.2135 91.39C59.2435 89.4661 58.1275 86.8542 58.109 84.1243C58.109 81.3825 59.2168 78.7529 61.1888 76.8142C63.1608 74.8754 65.8353 73.7862 68.6241 73.7862H151.682C154.459 73.8044 157.115 74.9016 159.072 76.8384C161.029 78.7752 162.127 81.3944 162.127 84.1243C162.127 85.4748 161.856 86.8121 161.33 88.0595C160.804 89.3069 160.032 90.44 159.06 91.3939C158.087 92.3478 156.933 93.1037 155.663 93.6185C154.393 94.1332 153.032 94.3966 151.659 94.3936Z" fill="url(#paint1_linear_28_19)"/>
<path d="M92.9227 83.0763C92.8164 82.8805 92.6626 82.7323 92.4613 82.6316C92.2655 82.5254 92.0334 82.4722 91.7649 82.4722C91.3006 82.4722 90.9287 82.626 90.649 82.9337C90.3693 83.2357 90.2295 83.6412 90.2295 84.1502C90.2295 84.6928 90.3749 85.1179 90.6658 85.4255C90.9622 85.7275 91.3678 85.8786 91.8823 85.8786C92.2347 85.8786 92.5312 85.7891 92.7717 85.6101C93.0178 85.4311 93.1968 85.1738 93.3086 84.8382H91.488V83.7811H94.6091V85.1151C94.5028 85.473 94.321 85.8058 94.0637 86.1135C93.812 86.4211 93.4904 86.67 93.0989 86.8602C92.7074 87.0504 92.2655 87.1455 91.7733 87.1455C91.1916 87.1455 90.6714 87.0196 90.2127 86.7679C89.7597 86.5106 89.4045 86.1554 89.1472 85.7024C88.8955 85.2493 88.7697 84.7319 88.7697 84.1502C88.7697 83.5685 88.8955 83.0511 89.1472 82.5981C89.4045 82.1394 89.7597 81.7842 90.2127 81.5325C90.6658 81.2752 91.1832 81.1466 91.7649 81.1466C92.4696 81.1466 93.0625 81.3172 93.5436 81.6584C94.0302 81.9996 94.3518 82.4722 94.5084 83.0763H92.9227ZM97.5348 87.1706C97.0762 87.1706 96.6623 87.0727 96.2931 86.877C95.9296 86.6812 95.6415 86.4015 95.429 86.038C95.222 85.6744 95.1185 85.2493 95.1185 84.7627C95.1185 84.2817 95.2248 83.8594 95.4373 83.4958C95.6499 83.1266 95.9407 82.8442 96.3099 82.6484C96.6791 82.4526 97.093 82.3548 97.5516 82.3548C98.0103 82.3548 98.4242 82.4526 98.7933 82.6484C99.1625 82.8442 99.4534 83.1266 99.6659 83.4958C99.8785 83.8594 99.9847 84.2817 99.9847 84.7627C99.9847 85.2437 99.8757 85.6688 99.6575 86.038C99.445 86.4015 99.1513 86.6812 98.7766 86.877C98.4074 87.0727 97.9935 87.1706 97.5348 87.1706ZM97.5348 85.9289C97.8089 85.9289 98.041 85.8282 98.2312 85.6269C98.427 85.4255 98.5249 85.1374 98.5249 84.7627C98.5249 84.3879 98.4298 84.0999 98.2396 83.8985C98.055 83.6972 97.8257 83.5965 97.5516 83.5965C97.272 83.5965 97.0398 83.6972 96.8553 83.8985C96.6707 84.0943 96.5784 84.3823 96.5784 84.7627C96.5784 85.1374 96.6679 85.4255 96.8469 85.6269C97.0314 85.8282 97.2608 85.9289 97.5348 85.9289ZM105.133 85.887V87.1035H104.403C103.883 87.1035 103.477 86.9777 103.187 86.726C102.896 86.4687 102.75 86.052 102.75 85.4758V83.6133H102.18V82.4219H102.75V81.2808H104.185V82.4219H105.125V83.6133H104.185V85.4926C104.185 85.6325 104.219 85.7331 104.286 85.7947C104.353 85.8562 104.465 85.887 104.621 85.887H105.133ZM108.063 87.1706C107.605 87.1706 107.191 87.0727 106.822 86.877C106.458 86.6812 106.17 86.4015 105.957 86.038C105.75 85.6744 105.647 85.2493 105.647 84.7627C105.647 84.2817 105.753 83.8594 105.966 83.4958C106.178 83.1266 106.469 82.8442 106.838 82.6484C107.208 82.4526 107.621 82.3548 108.08 82.3548C108.539 82.3548 108.953 82.4526 109.322 82.6484C109.691 82.8442 109.982 83.1266 110.194 83.4958C110.407 83.8594 110.513 84.2817 110.513 84.7627C110.513 85.2437 110.404 85.6688 110.186 86.038C109.973 86.4015 109.68 86.6812 109.305 86.877C108.936 87.0727 108.522 87.1706 108.063 87.1706ZM108.063 85.9289C108.337 85.9289 108.57 85.8282 108.76 85.6269C108.955 85.4255 109.053 85.1374 109.053 84.7627C109.053 84.3879 108.958 84.0999 108.768 83.8985C108.583 83.6972 108.354 83.5965 108.08 83.5965C107.8 83.5965 107.568 83.6972 107.384 83.8985C107.199 84.0943 107.107 84.3823 107.107 84.7627C107.107 85.1374 107.196 85.4255 107.375 85.6269C107.56 85.8282 107.789 85.9289 108.063 85.9289ZM115.838 87.1622C115.284 87.1622 114.775 87.0336 114.311 86.7763C113.852 86.519 113.486 86.161 113.212 85.7024C112.943 85.2381 112.809 84.7179 112.809 84.1418C112.809 83.5657 112.943 83.0483 113.212 82.5897C113.486 82.131 113.852 81.7731 114.311 81.5158C114.775 81.2585 115.284 81.1298 115.838 81.1298C116.392 81.1298 116.898 81.2585 117.356 81.5158C117.821 81.7731 118.184 82.131 118.447 82.5897C118.716 83.0483 118.85 83.5657 118.85 84.1418C118.85 84.7179 118.716 85.2381 118.447 85.7024C118.179 86.161 117.815 86.519 117.356 86.7763C116.898 87.0336 116.392 87.1622 115.838 87.1622ZM115.838 85.8534C116.308 85.8534 116.682 85.6968 116.962 85.3836C117.247 85.0703 117.39 84.6564 117.39 84.1418C117.39 83.6217 117.247 83.2077 116.962 82.9001C116.682 82.5869 116.308 82.4303 115.838 82.4303C115.362 82.4303 114.982 82.5841 114.697 82.8917C114.417 83.1994 114.277 83.6161 114.277 84.1418C114.277 84.662 114.417 85.0787 114.697 85.3919C114.982 85.6996 115.362 85.8534 115.838 85.8534ZM121.997 83.6133H121.225V87.1035H119.791V83.6133H119.27V82.4219H119.791V82.2876C119.791 81.7115 119.956 81.2752 120.286 80.9788C120.616 80.6768 121.099 80.5257 121.737 80.5257C121.843 80.5257 121.922 80.5285 121.972 80.5341V81.7507C121.698 81.7339 121.505 81.7731 121.393 81.8681C121.281 81.9632 121.225 82.1338 121.225 82.3799V82.4219H121.997V83.6133ZM125.02 83.6133H124.249V87.1035H122.814V83.6133H122.294V82.4219H122.814V82.2876C122.814 81.7115 122.979 81.2752 123.309 80.9788C123.639 80.6768 124.123 80.5257 124.76 80.5257C124.867 80.5257 124.945 80.5285 124.995 80.5341V81.7507C124.721 81.7339 124.528 81.7731 124.416 81.8681C124.305 81.9632 124.249 82.1338 124.249 82.3799V82.4219H125.02V83.6133ZM130.108 84.6872C130.108 84.8214 130.099 84.9613 130.083 85.1067H126.836C126.858 85.3975 126.95 85.6213 127.113 85.7779C127.28 85.9289 127.485 86.0044 127.725 86.0044C128.083 86.0044 128.332 85.8534 128.472 85.5514H129.999C129.92 85.859 129.778 86.1359 129.571 86.382C129.369 86.6281 129.115 86.821 128.807 86.9609C128.5 87.1007 128.156 87.1706 127.775 87.1706C127.317 87.1706 126.908 87.0727 126.55 86.877C126.192 86.6812 125.913 86.4015 125.711 86.038C125.51 85.6744 125.409 85.2493 125.409 84.7627C125.409 84.2761 125.507 83.851 125.703 83.4874C125.904 83.1238 126.184 82.8442 126.542 82.6484C126.9 82.4526 127.311 82.3548 127.775 82.3548C128.228 82.3548 128.631 82.4498 128.984 82.64C129.336 82.8302 129.61 83.1015 129.806 83.4538C130.007 83.8062 130.108 84.2173 130.108 84.6872ZM128.64 84.3096C128.64 84.0635 128.556 83.8678 128.388 83.7223C128.22 83.5769 128.01 83.5042 127.759 83.5042C127.518 83.5042 127.314 83.5741 127.146 83.7139C126.984 83.8538 126.883 84.0523 126.844 84.3096H128.64ZM132.299 83.2021C132.467 82.9449 132.677 82.7435 132.929 82.5981C133.18 82.4471 133.46 82.3715 133.768 82.3715V83.8901H133.373C133.015 83.8901 132.747 83.9684 132.568 84.1251C132.389 84.2761 132.299 84.5446 132.299 84.9305V87.1035H130.865V82.4219H132.299V83.2021Z" fill="white"/>
<path d="M27.9305 117.099C27.9281 117.449 27.82 117.791 27.6199 118.081C27.4197 118.371 27.1365 118.596 26.8062 118.727C26.4759 118.859 26.1133 118.891 25.7644 118.819C25.4156 118.748 25.0961 118.576 24.8466 118.326C24.5971 118.076 24.4288 117.759 24.363 117.414C24.2971 117.07 24.3368 116.714 24.4769 116.392C24.617 116.07 24.8512 115.796 25.1499 115.605C25.4486 115.414 25.7983 115.314 26.1546 115.319C26.6298 115.325 27.0832 115.515 27.4159 115.849C27.7486 116.182 27.9336 116.632 27.9305 117.099Z" fill="url(#paint2_linear_28_19)"/>
<path d="M34.3447 117.18C34.3432 117.411 34.2951 117.64 34.2031 117.854C34.1111 118.067 33.9771 118.261 33.8088 118.423C33.6405 118.585 33.4412 118.713 33.2223 118.799C33.0035 118.886 32.7695 118.929 32.5338 118.926C32.1774 118.923 31.8298 118.817 31.535 118.62C31.2402 118.423 31.0114 118.145 30.8777 117.82C30.7441 117.495 30.7115 117.139 30.7841 116.796C30.8568 116.453 31.0314 116.139 31.2858 115.894C31.5403 115.648 31.863 115.483 32.2133 115.418C32.5635 115.353 32.9254 115.392 33.253 115.53C33.5807 115.668 33.8593 115.898 34.0537 116.192C34.2481 116.485 34.3493 116.829 34.3447 117.18Z" fill="url(#paint3_linear_28_19)"/>
<path d="M40.7707 117.248C40.766 117.598 40.6559 117.939 40.4544 118.227C40.2529 118.516 39.9689 118.739 39.6384 118.868C39.3079 118.998 38.9457 119.028 38.5976 118.956C38.2495 118.883 37.9312 118.71 37.6829 118.46C37.4345 118.209 37.2673 117.892 37.2025 117.548C37.1376 117.204 37.1779 116.849 37.3183 116.527C37.4587 116.206 37.6929 115.932 37.9914 115.742C38.2898 115.551 38.6389 115.452 38.9948 115.456C39.231 115.459 39.4644 115.508 39.6816 115.6C39.8987 115.692 40.0953 115.824 40.2602 115.991C40.4251 116.157 40.5551 116.354 40.6427 116.57C40.7303 116.785 40.7737 117.016 40.7707 117.248Z" fill="url(#paint4_linear_28_19)"/>
<path d="M47.1966 117.329C47.1919 117.679 47.0819 118.019 46.8803 118.308C46.6788 118.596 46.3948 118.819 46.0643 118.949C45.7338 119.078 45.3716 119.109 45.0235 119.036C44.6755 118.963 44.3571 118.791 44.1088 118.54C43.8605 118.29 43.6933 117.972 43.6284 117.628C43.5635 117.284 43.6038 116.929 43.7442 116.608C43.8846 116.286 44.1189 116.013 44.4173 115.822C44.7157 115.632 45.0649 115.532 45.4207 115.537C45.657 115.54 45.8903 115.589 46.1075 115.68C46.3246 115.772 46.5212 115.905 46.6862 116.071C46.8511 116.238 46.981 116.434 47.0686 116.65C47.1562 116.866 47.1997 117.097 47.1966 117.329Z" fill="url(#paint5_linear_28_19)"/>
<path d="M53.6108 117.398C53.6062 117.748 53.4961 118.088 53.2946 118.377C53.093 118.665 52.8091 118.888 52.4785 119.018C52.148 119.147 51.7859 119.178 51.4378 119.105C51.0897 119.032 50.7714 118.86 50.523 118.609C50.2747 118.359 50.1075 118.041 50.0426 117.697C49.9777 117.353 50.018 116.998 50.1585 116.677C50.2989 116.355 50.5331 116.082 50.8315 115.891C51.1299 115.701 51.4791 115.601 51.8349 115.606C52.0717 115.607 52.3058 115.655 52.5236 115.746C52.7414 115.837 52.9387 115.97 53.1039 116.137C53.2691 116.303 53.399 116.501 53.486 116.717C53.5731 116.934 53.6155 117.165 53.6108 117.398Z" fill="url(#paint6_linear_28_19)"/>
<path d="M181.335 2.36858C181.33 2.72078 181.218 3.06348 181.014 3.3528C180.809 3.64211 180.522 3.86486 180.188 3.99251C179.854 4.12016 179.489 4.1469 179.139 4.0693C178.79 3.9917 178.472 3.8133 178.226 3.55695C177.981 3.3006 177.818 2.97797 177.76 2.63039C177.702 2.28282 177.751 1.92611 177.901 1.60598C178.05 1.28585 178.293 1.01686 178.599 0.833477C178.905 0.650092 179.26 0.560659 179.617 0.576635C180.084 0.597479 180.525 0.796163 180.845 1.13062C181.166 1.46509 181.341 1.90907 181.335 2.36858Z" fill="url(#paint7_linear_28_19)"/>
<path d="M187.796 2.43764C187.791 2.78747 187.681 3.12809 187.48 3.41642C187.278 3.70476 186.994 3.92786 186.664 4.05752C186.333 4.18718 185.971 4.21758 185.623 4.14487C185.275 4.07216 184.956 3.8996 184.708 3.64903C184.46 3.39845 184.293 3.0811 184.228 2.73711C184.163 2.39312 184.203 2.03793 184.344 1.71647C184.484 1.395 184.718 1.12169 185.017 0.931098C185.315 0.740503 185.664 0.641183 186.02 0.645697C186.256 0.648694 186.49 0.697424 186.707 0.789104C186.924 0.880784 187.121 1.01362 187.285 1.18002C187.45 1.34642 187.58 1.54313 187.668 1.75892C187.756 1.9747 187.799 2.20533 187.796 2.43764Z" fill="url(#paint8_linear_28_19)"/>
<path d="M194.175 2.50642C194.173 2.85677 194.065 3.19854 193.864 3.4884C193.664 3.77826 193.381 4.00316 193.051 4.13459C192.72 4.26601 192.358 4.29803 192.009 4.2266C191.66 4.15517 191.341 3.9835 191.091 3.73336C190.842 3.48321 190.673 3.16586 190.608 2.82154C190.542 2.47722 190.581 2.12143 190.721 1.7993C190.862 1.47716 191.096 1.20318 191.395 1.01209C191.693 0.821007 192.043 0.721421 192.399 0.725964C192.635 0.727459 192.868 0.774785 193.085 0.865216C193.302 0.955648 193.499 1.0874 193.664 1.25289C193.829 1.41837 193.959 1.61432 194.047 1.82946C194.135 2.04459 194.178 2.27466 194.175 2.50642Z" fill="url(#paint9_linear_28_19)"/>
<path d="M200.648 2.58683C200.643 2.93666 200.533 3.27728 200.332 3.56561C200.13 3.85394 199.846 4.07705 199.515 4.20671C199.185 4.33637 198.823 4.36677 198.475 4.29406C198.127 4.22135 197.808 4.04879 197.56 3.79821C197.312 3.54764 197.144 3.23029 197.08 2.8863C197.015 2.54231 197.055 2.18712 197.195 1.86566C197.336 1.54419 197.57 1.27088 197.868 1.08029C198.167 0.889692 198.516 0.790372 198.872 0.794886C199.108 0.797883 199.342 0.846613 199.559 0.938293C199.776 1.02997 199.972 1.16281 200.137 1.32921C200.302 1.49561 200.432 1.69232 200.52 1.9081C200.607 2.12389 200.651 2.35452 200.648 2.58683Z" fill="url(#paint10_linear_28_19)"/>
<path d="M207.027 2.65575C207.027 3.00659 206.921 3.3495 206.722 3.64089C206.523 3.93227 206.241 4.15897 205.911 4.29215C205.581 4.42534 205.218 4.45901 204.868 4.38887C204.518 4.31873 204.198 4.14795 203.947 3.89826C203.696 3.64856 203.527 3.33121 203.46 2.98656C203.393 2.64192 203.432 2.28554 203.572 1.96273C203.712 1.63992 203.946 1.36526 204.245 1.17367C204.544 0.982086 204.894 0.882224 205.251 0.88678C205.724 0.892822 206.176 1.08186 206.508 1.41295C206.841 1.74405 207.027 2.19055 207.027 2.65575Z" fill="url(#paint11_linear_28_19)"/>
<path d="M41.6519 58.6973C41.6519 57.6035 41.8154 56.6855 42.1426 55.9434C42.3867 55.3965 42.7188 54.9058 43.1387 54.4712C43.5635 54.0366 44.0273 53.7144 44.5303 53.5044C45.1992 53.2212 45.9707 53.0796 46.8447 53.0796C48.4268 53.0796 49.6914 53.5703 50.6387 54.5518C51.5908 55.5332 52.0669 56.8979 52.0669 58.646C52.0669 60.3794 51.5957 61.7368 50.6533 62.7183C49.7109 63.6948 48.4512 64.1831 46.874 64.1831C45.2773 64.1831 44.0078 63.6973 43.0654 62.7256C42.123 61.749 41.6519 60.4062 41.6519 58.6973ZM43.8857 58.624C43.8857 59.8398 44.1665 60.7627 44.728 61.3926C45.2896 62.0176 46.0024 62.3301 46.8667 62.3301C47.731 62.3301 48.439 62.02 48.9907 61.3999C49.5474 60.7749 49.8257 59.8398 49.8257 58.5947C49.8257 57.3643 49.5547 56.4463 49.0127 55.8408C48.4756 55.2354 47.7603 54.9326 46.8667 54.9326C45.9731 54.9326 45.2529 55.2402 44.7061 55.8555C44.1592 56.4658 43.8857 57.3887 43.8857 58.624ZM53.7515 53.2627H55.9194V59.0781C55.9194 60.001 55.9463 60.5991 56 60.8726C56.0928 61.312 56.3125 61.666 56.6592 61.9346C57.0107 62.1982 57.4893 62.3301 58.0947 62.3301C58.71 62.3301 59.1738 62.2056 59.4863 61.9565C59.7988 61.7026 59.9868 61.3926 60.0503 61.0264C60.1138 60.6602 60.1455 60.0522 60.1455 59.2026V53.2627H62.3135V58.9023C62.3135 60.1914 62.2549 61.1021 62.1377 61.6343C62.0205 62.1665 61.8032 62.6157 61.4858 62.9819C61.1733 63.3481 60.7534 63.6411 60.2261 63.8608C59.6987 64.0757 59.0103 64.1831 58.1606 64.1831C57.1353 64.1831 56.3564 64.0659 55.8242 63.8315C55.2969 63.5923 54.8794 63.2847 54.5718 62.9087C54.2642 62.5278 54.0615 62.1299 53.9639 61.7148C53.8223 61.0996 53.7515 60.1914 53.7515 58.9902V53.2627ZM64.6133 64V53.2627H69.1763C70.3237 53.2627 71.1562 53.3604 71.6738 53.5557C72.1963 53.7461 72.6138 54.0879 72.9263 54.5811C73.2388 55.0742 73.395 55.6382 73.395 56.2729C73.395 57.0786 73.1582 57.7451 72.6846 58.2725C72.2109 58.7949 71.5029 59.1245 70.5605 59.2612C71.0293 59.5347 71.415 59.835 71.7178 60.1621C72.0254 60.4893 72.438 61.0703 72.9556 61.9053L74.2666 64H71.6738L70.1064 61.6636C69.5498 60.8286 69.1689 60.3037 68.9639 60.0889C68.7588 59.8691 68.5415 59.7202 68.312 59.6421C68.0825 59.5591 67.7188 59.5176 67.2207 59.5176H66.7812V64H64.6133ZM66.7812 57.8037H68.3853C69.4253 57.8037 70.0747 57.7598 70.3335 57.6719C70.5923 57.584 70.7949 57.4326 70.9414 57.2178C71.0879 57.0029 71.1611 56.7344 71.1611 56.4121C71.1611 56.0508 71.0635 55.7603 70.8682 55.5405C70.6777 55.3159 70.4067 55.1743 70.0552 55.1157C69.8794 55.0913 69.3521 55.0791 68.4731 55.0791H66.7812V57.8037ZM86.41 60.0522L88.5121 60.7188C88.1898 61.8906 87.6527 62.7622 86.9007 63.3335C86.1537 63.8999 85.204 64.1831 84.0516 64.1831C82.6258 64.1831 81.454 63.6973 80.536 62.7256C79.618 61.749 79.159 60.416 79.159 58.7266C79.159 56.9395 79.6205 55.5527 80.5433 54.5664C81.4662 53.5752 82.6795 53.0796 84.1834 53.0796C85.4969 53.0796 86.5638 53.4678 87.3841 54.2441C87.8724 54.7031 88.2386 55.3623 88.4828 56.2217L86.3368 56.7344C86.2098 56.1777 85.9437 55.7383 85.5384 55.416C85.138 55.0938 84.6498 54.9326 84.0736 54.9326C83.2777 54.9326 82.6307 55.2183 82.1327 55.7896C81.6395 56.3608 81.3929 57.2861 81.3929 58.5654C81.3929 59.9229 81.6371 60.8896 82.1253 61.4658C82.6136 62.042 83.2484 62.3301 84.0296 62.3301C84.6058 62.3301 85.1014 62.147 85.5165 61.7808C85.9315 61.4146 86.2293 60.8384 86.41 60.0522ZM89.9403 58.6973C89.9403 57.6035 90.1039 56.6855 90.431 55.9434C90.6751 55.3965 91.0072 54.9058 91.4271 54.4712C91.8519 54.0366 92.3158 53.7144 92.8187 53.5044C93.4876 53.2212 94.2591 53.0796 95.1332 53.0796C96.7152 53.0796 97.9798 53.5703 98.9271 54.5518C99.8792 55.5332 100.355 56.8979 100.355 58.646C100.355 60.3794 99.8841 61.7368 98.9417 62.7183C97.9994 63.6948 96.7396 64.1831 95.1625 64.1831C93.5658 64.1831 92.2962 63.6973 91.3539 62.7256C90.4115 61.749 89.9403 60.4062 89.9403 58.6973ZM92.1742 58.624C92.1742 59.8398 92.4549 60.7627 93.0165 61.3926C93.578 62.0176 94.2909 62.3301 95.1551 62.3301C96.0194 62.3301 96.7274 62.02 97.2792 61.3999C97.8358 60.7749 98.1141 59.8398 98.1141 58.5947C98.1141 57.3643 97.8431 56.4463 97.3011 55.8408C96.764 55.2354 96.0487 54.9326 95.1551 54.9326C94.2616 54.9326 93.5414 55.2402 92.9945 55.8555C92.4476 56.4658 92.1742 57.3887 92.1742 58.624ZM102.047 53.2627H106.01C106.903 53.2627 107.584 53.3311 108.053 53.4678C108.683 53.6533 109.223 53.9829 109.672 54.4565C110.121 54.9302 110.463 55.5112 110.697 56.1997C110.931 56.8833 111.049 57.728 111.049 58.7339C111.049 59.6177 110.939 60.3794 110.719 61.019C110.451 61.8003 110.067 62.4326 109.569 62.916C109.193 63.2822 108.685 63.5679 108.046 63.7729C107.567 63.9243 106.928 64 106.127 64H102.047V53.2627ZM104.215 55.0791V62.1909H105.834C106.439 62.1909 106.876 62.1567 107.145 62.0884C107.496 62.0005 107.787 61.8516 108.016 61.6416C108.251 61.4316 108.441 61.0874 108.588 60.6089C108.734 60.1255 108.807 59.4688 108.807 58.6387C108.807 57.8086 108.734 57.1714 108.588 56.7271C108.441 56.2827 108.236 55.936 107.973 55.687C107.709 55.438 107.374 55.2695 106.969 55.1816C106.666 55.1133 106.073 55.0791 105.189 55.0791H104.215ZM112.894 64V53.2627H120.856V55.0791H115.062V57.4595H120.453V59.2686H115.062V62.1909H121.061V64H112.894ZM129.035 57.6159H126.461L128.109 53.6736H129.8L129.035 57.6159ZM132.374 57.6159H129.815L131.462 53.6736H133.139L132.374 57.6159ZM134.392 60.5739L136.46 60.3728C136.585 61.0671 136.836 61.5771 137.215 61.9027C137.598 62.2283 138.112 62.3911 138.759 62.3911C139.444 62.3911 139.958 62.2474 140.303 61.9601C140.653 61.668 140.828 61.3281 140.828 60.9402C140.828 60.6912 140.753 60.4805 140.605 60.3081C140.461 60.131 140.207 59.9777 139.844 59.8484C139.595 59.7623 139.027 59.609 138.141 59.3888C137.002 59.1062 136.202 58.7591 135.742 58.3473C135.096 57.7679 134.773 57.0616 134.773 56.2284C134.773 55.6921 134.923 55.1917 135.225 54.7272C135.532 54.258 135.97 53.9012 136.54 53.657C137.114 53.4128 137.806 53.2907 138.615 53.2907C139.937 53.2907 140.93 53.5804 141.596 54.1598C142.266 54.7392 142.618 55.5125 142.652 56.4798L140.526 56.5732C140.435 56.0321 140.239 55.6442 139.937 55.4096C139.64 55.1702 139.192 55.0505 138.594 55.0505C137.976 55.0505 137.492 55.1774 137.143 55.4311C136.918 55.5939 136.805 55.8118 136.805 56.0848C136.805 56.3338 136.911 56.5468 137.121 56.724C137.389 56.9491 138.041 57.1837 139.075 57.4279C140.109 57.6721 140.873 57.9259 141.366 58.1893C141.864 58.4478 142.252 58.8046 142.53 59.2595C142.812 59.7096 142.954 60.2674 142.954 60.933C142.954 61.5364 142.786 62.1014 142.451 62.6281C142.116 63.1548 141.642 63.5475 141.029 63.8061C140.416 64.0599 139.652 64.1867 138.737 64.1867C137.406 64.1867 136.384 63.8803 135.67 63.2674C134.957 62.6497 134.531 61.7518 134.392 60.5739ZM144.742 64V53.4703H148.154C149.447 53.4703 150.289 53.523 150.682 53.6283C151.285 53.7863 151.791 54.1311 152.198 54.6626C152.605 55.1893 152.808 55.8717 152.808 56.7096C152.808 57.3561 152.691 57.8996 152.456 58.3401C152.222 58.7806 151.922 59.1278 151.558 59.3816C151.199 59.6306 150.833 59.7958 150.459 59.8772C149.952 59.9777 149.217 60.028 148.254 60.028H146.868V64H144.742ZM146.868 55.2516V58.2395H148.032C148.87 58.2395 149.43 58.1845 149.712 58.0743C149.995 57.9642 150.215 57.7918 150.373 57.5572C150.536 57.3226 150.617 57.0496 150.617 56.7384C150.617 56.3553 150.505 56.0393 150.28 55.7903C150.055 55.5413 149.77 55.3856 149.425 55.3234C149.171 55.2755 148.661 55.2516 147.895 55.2516H146.868ZM154.554 64V53.4703H162.361V55.2516H156.68V57.5859H161.966V59.36H156.68V62.2259H162.562V64H154.554ZM171.102 60.1286L173.164 60.7822C172.848 61.9314 172.321 62.7861 171.583 63.3464C170.851 63.9018 169.92 64.1796 168.789 64.1796C167.391 64.1796 166.242 63.7031 165.342 62.7502C164.442 61.7925 163.991 60.4853 163.991 58.8285C163.991 57.076 164.444 55.716 165.349 54.7488C166.254 53.7767 167.444 53.2907 168.919 53.2907C170.207 53.2907 171.253 53.6714 172.058 54.4328C172.536 54.8829 172.896 55.5293 173.135 56.3721L171.03 56.8748C170.906 56.329 170.645 55.898 170.248 55.582C169.855 55.2659 169.376 55.1079 168.811 55.1079C168.03 55.1079 167.396 55.388 166.908 55.9483C166.424 56.5085 166.182 57.4159 166.182 58.6705C166.182 60.0017 166.422 60.9498 166.9 61.5148C167.379 62.0798 168.002 62.3624 168.768 62.3624C169.333 62.3624 169.819 62.1828 170.226 61.8237C170.633 61.4645 170.925 60.8995 171.102 60.1286ZM174.931 64V53.4703H177.057V64H174.931ZM188.585 64H186.272L185.353 61.6082H181.144L180.274 64H178.019L182.12 53.4703H184.369L188.585 64ZM184.67 59.8341L183.219 55.9267L181.797 59.8341H184.67ZM189.777 64V53.5565H191.903V62.2259H197.19V64H189.777ZM199.128 53.6736H201.702L200.054 57.6159H198.363L199.128 53.6736ZM202.467 53.6736H205.041L203.394 57.6159H201.702L202.467 53.6736Z" fill="white"/>
<defs>
<linearGradient id="paint0_linear_28_19" x1="15.3707" y1="67.2922" x2="232.59" y2="67.2922" gradientUnits="userSpaceOnUse">
<stop/>
<stop offset="0.79" stop-color="#302D3E"/>
<stop offset="0.87" stop-color="#2F2C3D"/>
</linearGradient>
<linearGradient id="paint1_linear_28_19" x1="58.144" y1="84.1243" x2="162.104" y2="84.1243" gradientUnits="userSpaceOnUse">
<stop/>
<stop offset="0.79" stop-color="#302D3E"/>
<stop offset="0.87" stop-color="#2F2C3D"/>
</linearGradient>
<linearGradient id="paint2_linear_28_19" x1="24.3266" y1="117.075" x2="27.9249" y2="117.117" gradientUnits="userSpaceOnUse">
<stop/>
<stop offset="0.79" stop-color="#302D3E"/>
<stop offset="0.87" stop-color="#2F2C3D"/>
</linearGradient>
<linearGradient id="paint3_linear_28_19" x1="30.7521" y1="117.148" x2="34.3504" y2="117.191" gradientUnits="userSpaceOnUse">
<stop/>
<stop offset="0.79" stop-color="#302D3E"/>
<stop offset="0.87" stop-color="#2F2C3D"/>
</linearGradient>
<linearGradient id="paint4_linear_28_19" x1="37.1659" y1="117.222" x2="40.7642" y2="117.265" gradientUnits="userSpaceOnUse">
<stop/>
<stop offset="0.79" stop-color="#302D3E"/>
<stop offset="0.87" stop-color="#2F2C3D"/>
</linearGradient>
<linearGradient id="paint5_linear_28_19" x1="43.5914" y1="117.296" x2="47.1897" y2="117.339" gradientUnits="userSpaceOnUse">
<stop/>
<stop offset="0.79" stop-color="#302D3E"/>
<stop offset="0.87" stop-color="#2F2C3D"/>
</linearGradient>
<linearGradient id="paint6_linear_28_19" x1="50.0169" y1="117.37" x2="53.6152" y2="117.413" gradientUnits="userSpaceOnUse">
<stop/>
<stop offset="0.79" stop-color="#302D3E"/>
<stop offset="0.87" stop-color="#2F2C3D"/>
</linearGradient>
<linearGradient id="paint7_linear_28_19" x1="177.739" y1="2.33098" x2="181.338" y2="2.37378" gradientUnits="userSpaceOnUse">
<stop/>
<stop offset="0.79" stop-color="#302D3E"/>
<stop offset="0.87" stop-color="#2F2C3D"/>
</linearGradient>
<linearGradient id="paint8_linear_28_19" x1="184.165" y1="2.405" x2="187.763" y2="2.4478" gradientUnits="userSpaceOnUse">
<stop/>
<stop offset="0.79" stop-color="#302D3E"/>
<stop offset="0.87" stop-color="#2F2C3D"/>
</linearGradient>
<linearGradient id="paint9_linear_28_19" x1="190.579" y1="2.4786" x2="194.177" y2="2.5214" gradientUnits="userSpaceOnUse">
<stop/>
<stop offset="0.79" stop-color="#302D3E"/>
<stop offset="0.87" stop-color="#2F2C3D"/>
</linearGradient>
<linearGradient id="paint10_linear_28_19" x1="197.004" y1="2.55247" x2="200.602" y2="2.59527" gradientUnits="userSpaceOnUse">
<stop/>
<stop offset="0.79" stop-color="#302D3E"/>
<stop offset="0.87" stop-color="#2F2C3D"/>
</linearGradient>
<linearGradient id="paint11_linear_28_19" x1="203.43" y1="2.62635" x2="207.028" y2="2.66915" gradientUnits="userSpaceOnUse">
<stop/>
<stop offset="0.79" stop-color="#302D3E"/>
<stop offset="0.87" stop-color="#2F2C3D"/>
</linearGradient>
</defs>
</svg>
