<svg width="18" height="18" viewBox="0 0 18 18" fill="none" xmlns="http://www.w3.org/2000/svg">
<g clip-path="url(#clip0_0_70)">
<mask id="mask0_0_70" style="mask-type:luminance" maskUnits="userSpaceOnUse" x="0" y="0" width="18" height="18">
<path d="M17.9358 0H0V17.9358H17.9358V0Z" fill="white"/>
</mask>
<g mask="url(#mask0_0_70)">
<path d="M8.96791 1.61589C11.3627 1.61589 11.646 1.62528 12.5914 1.66833C13.1601 1.6752 13.7234 1.77976 14.2568 1.97746C14.6434 2.12679 14.9945 2.35528 15.2876 2.64827C15.5808 2.94127 15.8095 3.2923 15.959 3.67885C16.1566 4.21217 16.2612 4.7755 16.2681 5.34424C16.3111 6.28963 16.3205 6.57372 16.3205 8.96772C16.3205 11.3617 16.3111 11.6458 16.2681 12.5912C16.2612 13.1599 16.1566 13.7232 15.959 14.2566C15.8101 14.6431 15.5821 14.9942 15.2894 15.2874C14.9968 15.5805 14.6461 15.8092 14.2599 15.9588C13.7266 16.1564 13.1632 16.261 12.5945 16.2679C11.6491 16.3109 11.365 16.3203 8.97104 16.3203C6.57704 16.3203 6.29296 16.3109 5.34757 16.2679C4.77882 16.261 4.21549 16.1564 3.68217 15.9588C3.29508 15.8103 2.94337 15.5824 2.64967 15.2898C2.35597 14.9972 2.12679 14.6462 1.97687 14.2597C1.77917 13.7264 1.67461 13.163 1.66774 12.5943C1.6247 11.6489 1.6153 11.3648 1.6153 8.97085C1.6153 6.57685 1.6247 6.29276 1.66774 5.34737C1.67423 4.77758 1.77881 4.21315 1.97687 3.67885C2.12629 3.29215 2.35489 2.94097 2.64803 2.64784C2.94117 2.3547 3.29235 2.12609 3.67904 1.97668C4.21236 1.77896 4.77569 1.6744 5.34443 1.66754C6.28983 1.6245 6.57391 1.61511 8.96791 1.61511V1.61589ZM8.96791 -0.000976562C6.53243 -0.000976562 6.22878 0.00919716 5.27009 0.0530232C4.52598 0.0679834 3.78981 0.209027 3.09287 0.470153C2.4973 0.700761 1.95645 1.05322 1.50499 1.50496C1.05352 1.9567 0.701382 2.49774 0.47113 3.09346C0.210004 3.79039 0.06896 4.52657 0.0539998 5.27068C0.0101738 6.22702 0 6.53224 0 8.9685C0 11.4048 0.0101738 11.7076 0.0539998 12.6663C0.06896 13.4104 0.210004 14.1466 0.47113 14.8435C0.701285 15.4397 1.05346 15.9811 1.50507 16.433C1.95669 16.8851 2.49778 17.2377 3.09365 17.4684C3.79059 17.7296 4.52677 17.8706 5.27087 17.8855C6.22722 17.9294 6.53243 17.9395 8.9687 17.9395C11.405 17.9395 11.7078 17.9294 12.6665 17.8855C13.4106 17.8706 14.1468 17.7296 14.8437 17.4684C15.4402 17.2379 15.9818 16.8851 16.4338 16.4327C16.886 15.9804 17.2384 15.4386 17.4686 14.842C17.7298 14.1451 17.8708 13.4089 17.8857 12.6648C17.9296 11.7084 17.9397 11.4032 17.9397 8.96694C17.9397 6.53068 17.9296 6.22781 17.8857 5.26911C17.8706 4.52554 17.7295 3.7899 17.4686 3.09346C17.2382 2.49781 16.8859 1.95687 16.4343 1.50526C15.9827 1.05367 15.4417 0.701366 14.8461 0.470937C14.1492 0.209809 13.413 0.068766 12.6689 0.0538058C11.7125 0.00997968 11.4073 -0.00019401 8.97104 -0.00019401L8.96791 -0.000976562Z" fill="#7A7A7A"/>
<path d="M8.96728 4.36304C8.05656 4.36304 7.16624 4.63311 6.40897 5.1391C5.6517 5.64509 5.06148 6.36427 4.71295 7.2057C4.36442 8.04717 4.27323 8.97299 4.45091 9.86626C4.62859 10.7595 5.06716 11.58 5.71116 12.224C6.35516 12.868 7.17568 13.3066 8.06892 13.4843C8.96219 13.662 9.8881 13.5708 10.7295 13.2222C11.5709 12.8737 12.2901 12.2835 12.7961 11.5263C13.3021 10.769 13.5721 9.87863 13.5721 8.96791C13.5721 8.36318 13.453 7.76439 13.2216 7.2057C12.9902 6.64701 12.651 6.13938 12.2234 5.71178C11.7959 5.28418 11.2882 4.94498 10.7295 4.71357C10.1708 4.48215 9.572 4.36304 8.96728 4.36304ZM8.96728 11.9543C8.37602 11.9543 7.79802 11.779 7.30639 11.4505C6.81475 11.122 6.43157 10.6551 6.2053 10.1089C5.97902 9.56253 5.91982 8.96149 6.03517 8.38158C6.15052 7.80163 6.43526 7.26894 6.85336 6.85084C7.27145 6.43274 7.80414 6.14801 8.38408 6.03265C8.96399 5.91731 9.56511 5.9765 10.1114 6.20278C10.6576 6.42905 11.1245 6.81223 11.453 7.30386C11.7815 7.79549 11.9568 8.37352 11.9568 8.96478C11.9572 9.35765 11.8802 9.74668 11.7302 10.1098C11.5801 10.4729 11.3599 10.8028 11.0824 11.0807C10.8047 11.3587 10.475 11.5792 10.1121 11.7296C9.74918 11.8801 9.36015 11.9575 8.96728 11.9575V11.9543Z" fill="#7A7A7A"/>
<path d="M13.7537 5.25679C14.348 5.25679 14.8298 4.77501 14.8298 4.1807C14.8298 3.5864 14.348 3.10461 13.7537 3.10461C13.1594 3.10461 12.6776 3.5864 12.6776 4.1807C12.6776 4.77501 13.1594 5.25679 13.7537 5.25679Z" fill="#7A7A7A"/>
</g>
</g>
<defs>
<clipPath id="clip0_0_70">
<rect width="18" height="18" fill="white"/>
</clipPath>
</defs>
</svg>
