<svg width="18" height="18" viewBox="0 0 18 18" fill="none" xmlns="http://www.w3.org/2000/svg">
<g clip-path="url(#clip0_0_78)">
<mask id="mask0_0_78" style="mask-type:luminance" maskUnits="userSpaceOnUse" x="0" y="0" width="18" height="18">
<path d="M17.6047 0H0V17.3258H17.6047V0Z" fill="white"/>
</mask>
<g mask="url(#mask0_0_78)">
<path d="M16.803 0H0.80397C0.591653 -1.48353e-06 0.38798 0.084135 0.237568 0.233984C0.087156 0.383834 0.00225856 0.587184 0.00146484 0.7995V16.5262C0.00186219 16.739 0.0866745 16.943 0.23727 17.0933C0.387866 17.2435 0.591939 17.328 0.804713 17.328H9.68925V10.3695H7.39572V7.97625H9.68925V5.37375C9.70687 4.69666 9.98018 4.05136 10.4543 3.56758C10.9283 3.08381 11.5679 2.79742 12.2445 2.766H14.8118V4.94625H13.6275C13.044 4.94625 12.2655 5.42025 12.2655 6.003V7.97625H14.5785V10.3763H12.2655V17.3317H16.803C17.016 17.3317 17.2203 17.2472 17.371 17.0965C17.5216 16.9459 17.6063 16.7415 17.6063 16.5285V0.80325C17.6063 0.590214 17.5216 0.385905 17.371 0.235266C17.2203 0.0846278 17.016 0 16.803 0Z" fill="#7A7A7A"/>
</g>
</g>
<defs>
<clipPath id="clip0_0_78">
<rect width="18" height="18" fill="white"/>
</clipPath>
</defs>
</svg>
