<svg width="58" height="69" viewBox="0 0 58 69" fill="none" xmlns="http://www.w3.org/2000/svg">
<path fill-rule="evenodd" clip-rule="evenodd" d="M25.0793 28.5772L53.5817 30.288C56.0577 30.4366 57.2958 30.5109 57.4823 31.2071C57.6688 31.9033 56.6338 32.5867 54.5638 33.9534L3.37145 67.7534C1.91493 68.715 1.18667 69.1959 0.651431 68.8869C0.116202 68.5778 0.168486 67.7067 0.273055 65.9645L3.9485 4.73063C4.09712 2.25457 4.17143 1.01654 4.86763 0.829991C5.56383 0.643445 6.2472 1.67845 7.61393 3.74847L23.3471 27.5774L12.4616 46.4316C12.1855 46.9099 12.3493 47.5215 12.8276 47.7976C13.3059 48.0737 13.9175 47.9099 14.1936 47.4316L25.0793 28.5772Z" fill="white" fill-opacity="0.93"/>
</svg>
